<svg xmlns="http://www.w3.org/2000/svg"  viewBox="0 0 100 100" width="100px" height="100px" baseProfile="basic"><path fill="#c7ede6" d="M86.212,57.157c1.135-2.155,1.785-4.605,1.785-7.21c0-6.621-4.159-12.257-10.001-14.478 c0-0.008,0.001-0.015,0.001-0.022c0-11.598-9.402-21-21-21c-9.784,0-17.981,6.701-20.313,15.757 c-1.476-0.485-3.048-0.757-4.687-0.757c-7.692,0-14.023,5.793-14.89,13.252c-5.204,1.1-9.11,5.716-9.11,11.248 c0,6.351,5.149,11.5,11.5,11.5c0.177,0,0.352-0.012,0.526-0.022c-0.004,0.175-0.026,0.346-0.026,0.522 c0,11.322,9.178,20.5,20.5,20.5c6.437,0,12.175-2.972,15.934-7.614c2.178,2.225,5.207,3.614,8.566,3.614 c4.65,0,8.674-2.65,10.666-6.518c1.052,0.334,2.171,0.518,3.334,0.518c6.075,0,11-4.925,11-11 C89.997,62.136,88.527,59.173,86.212,57.157z"/><path fill="#fdfcef" d="M64,37h-6.003c-2.485-0.053-4.5-2.068-4.5-4.553c0-2.333,1.782-4.229,4.055-4.455 c-0.022-0.181-0.055-0.358-0.055-0.545c0-2.485,2.015-4.5,4.5-4.5c1.438,0,2.703,0.686,3.527,1.736 c0.14-2.636,2.302-4.736,4.973-4.736c2.761,0,5,2.239,5,5c0,0.446-0.077,0.87-0.187,1.282c0.642-0.777,1.6-1.282,2.687-1.282 c1.781,0,3.234,1.335,3.455,3.055c0.181-0.022,0.358-0.055,0.545-0.055c2.485,0,4.5,2.015,4.5,4.5s-2.015,4.5-4.5,4.553h-9.5H67v1 h-3V37z"/><path fill="#472b29" d="M70.5,19c3.033,0,5.5,2.467,5.5,5.5c0,0.016,0,0.031,0,0.047C76.602,24.192,77.29,24,78,24 c1.831,0,3.411,1.261,3.858,3.005C81.905,27.002,81.952,27,82,27c3.099,0,5.549,2.834,4.893,6.047 C86.413,35.398,84.204,37,81.804,37H67.125c-0.276,0-0.5-0.224-0.5-0.5s0.224-0.5,0.5-0.5h14.718c1.92,0,3.687-1.282,4.071-3.163 C86.439,30.267,84.479,28,82,28c-0.117,0-0.23,0.017-0.343,0.032l-0.141,0.019c-0.021,0.003-0.041,0.004-0.062,0.004 c-0.246,0-0.462-0.185-0.495-0.437C80.768,26.125,79.496,25,78,25c-0.885,0-1.723,0.401-2.301,1.1 c-0.098,0.118-0.241,0.182-0.386,0.182c-0.078,0-0.156-0.018-0.228-0.056c-0.209-0.107-0.314-0.346-0.254-0.573 c0.16-0.6,0.202-1.069,0.147-1.549c-0.24-2.127-1.959-3.909-4.092-4.088c-2.551-0.215-4.725,1.728-4.859,4.246 c-0.011,0.208-0.15,0.387-0.349,0.45c-0.05,0.016-0.101,0.024-0.152,0.024c-0.15,0-0.296-0.069-0.392-0.192 C64.362,23.563,63.221,23,62,23c-2.206,0-4,1.794-4,4c0,0.117,0.017,0.23,0.032,0.343l0.019,0.141 c0.016,0.134-0.022,0.268-0.106,0.373s-0.207,0.172-0.34,0.185c-2.352,0.234-4.042,2.429-3.504,4.865 C54.509,34.76,56.275,36,58.173,36h5.952c0.276,0,0.5,0.224,0.5,0.5s-0.224,0.5-0.5,0.5h-5.938c-2.467,0-4.708-1.704-5.115-4.138 c-0.462-2.763,1.344-5.22,3.931-5.74C57.001,27.082,57,27.041,57,27c0-2.757,2.243-5,5-5c1.176,0,2.293,0.416,3.183,1.164 C65.781,20.76,67.945,19,70.5,19L70.5,19z"/><path fill="#472b29" d="M71.997,26.447c1.403,0,2.609,0.999,2.913,2.341c0.367-0.222,0.786-0.341,1.212-0.341 c1.202,0,2.198,0.897,2.353,2.068c0.203-0.045,0.396-0.068,0.585-0.068c1.529,0,2.811,1.2,2.918,2.732 c0.009,0.138-0.094,0.257-0.232,0.267c-0.006,0-0.012,0-0.018,0c-0.13,0-0.24-0.101-0.249-0.232 c-0.089-1.271-1.151-2.268-2.419-2.268c-0.229,0-0.47,0.042-0.738,0.127c-0.022,0.007-0.045,0.01-0.067,0.01 c-0.055,0-0.11-0.02-0.156-0.054c-0.064-0.047-0.102-0.129-0.102-0.209c0-1.034-0.841-1.875-1.875-1.875 c-0.447,0-0.885,0.168-1.231,0.473c-0.047,0.041-0.106,0.063-0.165,0.063c-0.032,0-0.063-0.006-0.093-0.019 c-0.088-0.035-0.148-0.117-0.155-0.212c-0.102-1.292-1.191-2.305-2.479-2.305c-0.208,0-0.425,0.034-0.682,0.107 c-0.023,0.007-0.047,0.01-0.07,0.01c-0.109,0-0.207-0.073-0.239-0.182c-0.038-0.133,0.039-0.271,0.172-0.309 C71.48,26.487,71.741,26.447,71.997,26.447L71.997,26.447z"/><path fill="#fff" d="M14.402,49H4.497c-0.276,0-0.5-0.224-0.5-0.5s0.224-0.5,0.5-0.5h9.905c0.276,0,0.5,0.224,0.5,0.5 S14.679,49,14.402,49z"/><path fill="#fff" d="M17.497,49h-1c-0.276,0-0.5-0.224-0.5-0.5s0.224-0.5,0.5-0.5h1c0.276,0,0.5,0.224,0.5,0.5 S17.774,49,17.497,49z"/><path fill="#fff" d="M22.488,51h-8.991c-0.276,0-0.5-0.224-0.5-0.5s0.224-0.5,0.5-0.5h8.991c0.276,0,0.5,0.224,0.5,0.5 S22.764,51,22.488,51z"/><path fill="#fff" d="M11.497,51h-1c-0.276,0-0.5-0.224-0.5-0.5s0.224-0.5,0.5-0.5h1c0.276,0,0.5,0.224,0.5,0.5 S11.774,51,11.497,51z"/><path fill="#fff" d="M8.497,51h-2c-0.276,0-0.5-0.224-0.5-0.5s0.224-0.5,0.5-0.5h2c0.276,0,0.5,0.224,0.5,0.5 S8.774,51,8.497,51z"/><path fill="#fff" d="M14.497,53h-2c-0.276,0-0.5-0.224-0.5-0.5s0.224-0.5,0.5-0.5h2c0.276,0,0.5,0.224,0.5,0.5 S14.773,53,14.497,53z"/><path fill="#fff" d="M17.497,44c-0.177,0-0.823,0-1,0c-0.276,0-0.5,0.224-0.5,0.5s0.224,0.5,0.5,0.5c0.177,0,0.823,0,1,0 c0.276,0,0.5-0.224,0.5-0.5S17.773,44,17.497,44z"/><path fill="#fff" d="M17.497,46c-0.177,0-4.823,0-5,0c-0.276,0-0.5,0.224-0.5,0.5s0.224,0.5,0.5,0.5c0.177,0,4.823,0,5,0 c0.276,0,0.5-0.224,0.5-0.5S17.773,46,17.497,46z"/><path fill="#fff" d="M22.497,48c-0.177,0-2.823,0-3,0c-0.276,0-0.5,0.224-0.5,0.5s0.224,0.5,0.5,0.5c0.177,0,2.823,0,3,0 c0.276,0,0.5-0.224,0.5-0.5S22.773,48,22.497,48z"/><path fill="#fff" d="M88.497,66h-10c-0.276,0-0.5-0.224-0.5-0.5s0.224-0.5,0.5-0.5h10c0.276,0,0.5,0.224,0.5,0.5 S88.773,66,88.497,66z"/><path fill="#fff" d="M92.497,66h-2c-0.276,0-0.5-0.224-0.5-0.5s0.224-0.5,0.5-0.5h2c0.276,0,0.5,0.224,0.5,0.5 S92.773,66,92.497,66z"/><path fill="#fff" d="M97.497,68h-10c-0.276,0-0.5-0.224-0.5-0.5s0.224-0.5,0.5-0.5h10c0.276,0,0.5,0.224,0.5,0.5 S97.774,68,97.497,68z"/><path fill="#fff" d="M85.497,68h-1c-0.276,0-0.5-0.224-0.5-0.5s0.224-0.5,0.5-0.5h1c0.276,0,0.5,0.224,0.5,0.5 S85.773,68,85.497,68z"/><path fill="#fff" d="M82.372,68h-1.875c-0.276,0-0.5-0.224-0.5-0.5s0.224-0.5,0.5-0.5h1.875c0.276,0,0.5,0.224,0.5,0.5 S82.648,68,82.372,68z"/><path fill="#fff" d="M91.497,64h-5c-0.276,0-0.5-0.224-0.5-0.5s0.224-0.5,0.5-0.5h5c0.276,0,0.5,0.224,0.5,0.5 S91.774,64,91.497,64z"/><path fill="#fff" d="M88.497,70h-2c-0.276,0-0.5-0.224-0.5-0.5s0.224-0.5,0.5-0.5h2c0.276,0,0.5,0.224,0.5,0.5 S88.773,70,88.497,70z"/><path fill="#895830" d="M65.272,75H37.729C33.461,75,30,71.539,30,67.271v-25.16C30,36.527,34.527,32,40.111,32 l24.563,0.804c4.268,0,7.957,2.645,7.957,6.913L73,67.272C73,71.54,69.54,75,65.272,75z"/><path fill="#65a91e" d="M70.804,35.478L32.196,74.217L30,68V36.924c0-2.719,3.128-4.25,5.848-4.25l28.826-0.326l4.565,1.435 L70.804,35.478z"/><path fill="#7cc858" d="M37.402,32C33.314,32,30,35.314,30,39.402v6.409c7.532-1.02,13.61-6.562,15.426-13.812H37.402z"/><path fill="#472b29" d="M43.367,37.227c-0.044,0-0.088-0.011-0.128-0.035c-0.119-0.071-0.157-0.225-0.087-0.343 c0.732-1.225,1.318-2.534,1.744-3.89c0.041-0.132,0.178-0.205,0.313-0.164c0.131,0.042,0.205,0.182,0.163,0.313 c-0.437,1.394-1.039,2.739-1.791,3.998C43.535,37.183,43.452,37.227,43.367,37.227z"/><path fill="#472b29" d="M37.315,43.411c-0.083,0-0.164-0.042-0.212-0.117c-0.073-0.117-0.038-0.271,0.079-0.345 c0.909-0.571,1.775-1.228,2.573-1.953c0.102-0.094,0.261-0.085,0.353,0.017c0.094,0.102,0.086,0.26-0.017,0.353 c-0.819,0.745-1.709,1.42-2.644,2.007C37.407,43.399,37.361,43.411,37.315,43.411z"/><path fill="#472b29" d="M30,46.062c-0.123,0-0.23-0.091-0.248-0.216c-0.019-0.137,0.078-0.263,0.215-0.281 c1.809-0.245,3.562-0.758,5.215-1.526c0.124-0.06,0.273-0.004,0.332,0.121s0.004,0.274-0.121,0.332 c-1.697,0.79-3.501,1.317-5.359,1.568C30.022,46.061,30.011,46.062,30,46.062z"/><path fill="#52321b" d="M66.5,75.196c2.647,0,5.935-2.18,5.935-4.826l0.196-5.739C72.297,64.614,72.338,64,72,64 c-7.805,0-14.547,4.48-17.843,11L66.5,75.196z"/><path fill="#472b29" d="M66.036,33.4c3.068,0,5.564,2.496,5.564,5.564v30.071c0,3.068-2.496,5.564-5.564,5.564H35.964 c-3.068,0-5.564-2.496-5.564-5.564V38.964c0-3.068,2.496-5.564,5.564-5.564H66.036 M66.036,32H35.964 C32.118,32,29,35.118,29,38.964v30.071C29,72.882,32.118,76,35.964,76h30.071C69.882,76,73,72.882,73,69.036V38.964 C73,35.118,69.882,32,66.036,32L66.036,32z"/><path fill="#fdfcef" d="M23,80h-3.003c-1.933-0.053-3.5-1.62-3.5-3.553c0-1.781,1.335-3.234,3.055-3.455 c-0.028-0.179-0.055-0.358-0.055-0.545c0-1.933,1.567-3.5,3.5-3.5c1.032,0,1.95,0.455,2.59,1.165 c0.384-1.808,1.987-3.165,3.91-3.165c2.209,0,4,1.791,4,4c0,0.191-0.03,0.374-0.056,0.558c0.428-0.344,0.965-0.558,1.556-0.558 c1.228,0,2.245,0.887,2.455,2.055c0.179-0.028,0.358-0.055,0.545-0.055c1.933,0,3.5,1.567,3.5,3.5s-1.567,3.5-3.5,3.553H30l0,0H23 L23,80z"/><path fill="#472b29" d="M21.747,75.044c0.138,0,0.25-0.112,0.25-0.25c0-1.223-0.995-2.218-2.218-2.218 c-0.034,0.009-0.737-0.001-1.244,0.136c-0.133,0.036-0.212,0.173-0.176,0.306c0.036,0.134,0.173,0.213,0.306,0.176 c0.444-0.12,1.1-0.12,1.113-0.118c0.948,0,1.719,0.771,1.719,1.718C21.497,74.932,21.609,75.044,21.747,75.044z"/><circle cx="28.5" cy="79.5" r=".5" fill="#472b29"/><path fill="#472b29" d="M16.165,77.157C16.67,78.889,18.369,80,20.173,80h3.324c0.276,0,0.5-0.224,0.5-0.5 s-0.224-0.5-0.5-0.5h-3.395c-1.243,0-2.435-0.701-2.886-1.859c-0.755-1.939,0.536-3.861,2.399-4.1 c0.134-0.018,0.255-0.088,0.336-0.196s0.115-0.244,0.094-0.377c-0.024-0.153-0.049-0.308-0.049-0.468c0-1.654,1.346-3,3-3 c0.85,0,1.638,0.355,2.219,1c0.125,0.139,0.321,0.198,0.5,0.148c0.182-0.049,0.321-0.195,0.36-0.379 C26.417,68.165,27.856,67,29.497,67c1.93,0,3.5,1.57,3.5,3.5c0,0.143-0.021,0.28-0.041,0.418c-0.029,0.203,0.063,0.438,0.242,0.54 s0.396,0.118,0.556-0.01C34.118,71.155,34.548,71,34.997,71c0.966,0,1.792,0.691,1.963,1.644c0.048,0.267,0.296,0.446,0.569,0.405 C37.682,73.025,37.837,73,37.997,73c1.97,0,3.503,1.908,2.846,3.974C40.447,78.218,39.206,79,37.901,79h-7.404 c-0.276,0-0.5,0.224-0.5,0.5s0.224,0.5,0.5,0.5h7.343c1.92,0,3.687-1.282,4.071-3.163C42.436,74.267,40.476,72,37.997,72 c-0.059,0-0.116,0.002-0.174,0.006C37.409,70.82,36.286,70,34.997,70c-0.349,0-0.689,0.061-1.011,0.18 C33.821,67.847,31.87,66,29.497,66c-1.831,0-3.466,1.127-4.153,2.774C24.663,68.276,23.842,68,22.997,68c-2.206,0-4,1.794-4,4 c0,0.048,0.001,0.095,0.004,0.142C16.899,72.682,15.497,74.869,16.165,77.157z"/><path fill="#472b29" d="M25.497,79c0.159,0,0.841,0,1,0c0.276,0,0.5,0.224,0.5,0.5s-0.224,0.5-0.5,0.5 c-0.159,0-0.841,0-1,0c-0.276,0-0.5-0.224-0.5-0.5S25.221,79,25.497,79z"/><g><path fill="#fdfcef" d="M39.539,63.047c-1.194,1.128-1.221,3.02-0.06,4.181c1.162,1.162,3.053,1.135,4.181-0.06 l16.381-17.345c2.897,3.545,4.698,7.565,5.304,11.491c0.15,0.969,1.55,1.023,1.757,0.064c1.086-5.049-0.147-10.656-3.637-15.18 l1.431-1.516c0.415-0.439,0.405-1.129-0.022-1.556l-1.294-1.294c-0.427-0.427-1.117-0.437-1.556-0.022l-1.444,1.363 c-4.649-3.973-10.616-5.426-15.959-4.276c-0.959,0.206-0.905,1.607,0.064,1.757c4.212,0.65,8.536,2.669,12.261,5.951"/></g><g><path fill="#472b29" d="M41.539,68.582c-0.912,0-1.768-0.354-2.413-1.001c-0.658-0.657-1.014-1.532-1-2.463 c0.013-0.931,0.393-1.796,1.069-2.435l2.973-2.808c0.201-0.19,0.52-0.18,0.707,0.02c0.189,0.201,0.181,0.518-0.02,0.707 l-2.973,2.808c-0.479,0.452-0.748,1.063-0.757,1.723c-0.01,0.657,0.241,1.276,0.707,1.741c0.466,0.466,1.071,0.765,1.741,0.707 c0.659-0.009,1.271-0.277,1.723-0.757L59.679,49.48c0.099-0.104,0.239-0.176,0.381-0.156c0.145,0.005,0.278,0.072,0.369,0.183 c2.904,3.555,4.775,7.61,5.411,11.73c0.046,0.299,0.307,0.33,0.386,0.332c0.073-0.004,0.328-0.014,0.388-0.297 c1.089-5.056-0.203-10.438-3.543-14.77c-0.15-0.194-0.137-0.47,0.032-0.648l1.432-1.516c0.23-0.244,0.225-0.621-0.013-0.859 l-1.294-1.294c-0.237-0.237-0.615-0.242-0.858-0.012l-1.445,1.364c-0.185,0.174-0.474,0.182-0.668,0.016 c-1.73-1.479-3.671-2.624-5.766-3.402c-0.259-0.096-0.391-0.384-0.295-0.643c0.097-0.259,0.382-0.391,0.643-0.295 c2.067,0.768,3.991,1.874,5.723,3.291l1.122-1.059c0.639-0.605,1.629-0.59,2.252,0.032l1.294,1.294 c0.623,0.623,0.637,1.612,0.032,2.252l-1.142,1.208c3.329,4.504,4.594,10.038,3.473,15.25c-0.145,0.67-0.729,1.093-1.396,1.086 c-0.688-0.021-1.241-0.506-1.345-1.18c-0.582-3.773-2.252-7.498-4.841-10.805L44.023,67.512c-0.639,0.677-1.504,1.057-2.435,1.069 C41.572,68.582,41.556,68.582,41.539,68.582z"/></g><g><path fill="#472b29" d="M43.721,59.543c-0.118,0-0.236-0.047-0.324-0.14c-0.169-0.179-0.16-0.461,0.019-0.63l2.48-2.343 c0.18-0.168,0.462-0.16,0.63,0.019c0.169,0.179,0.16,0.461-0.019,0.63l-2.48,2.343C43.94,59.503,43.83,59.543,43.721,59.543z"/></g><g><path fill="#472b29" d="M47.476,56.051c-0.133,0-0.266-0.053-0.363-0.156c-0.189-0.201-0.181-0.518,0.02-0.707l9.069-8.565 c-3.446-2.912-7.543-4.85-11.591-5.474c-0.675-0.104-1.159-0.657-1.18-1.345c-0.02-0.69,0.417-1.251,1.086-1.395 c2.736-0.589,5.666-0.512,8.475,0.222c0.268,0.07,0.428,0.343,0.357,0.61c-0.069,0.267-0.346,0.424-0.609,0.357 c-2.661-0.696-5.431-0.768-8.012-0.212c-0.284,0.061-0.299,0.312-0.297,0.388c0.002,0.079,0.033,0.339,0.332,0.386 c4.398,0.678,8.844,2.834,12.516,6.07c0.105,0.093,0.166,0.226,0.169,0.366c0.002,0.141-0.055,0.276-0.156,0.372l-9.472,8.945 C47.723,56.006,47.599,56.051,47.476,56.051z"/></g></svg>